# Blender 5.2.2 LTS
# www.blender.org
mtllib hat ready.mtl
o hat
v -0.877992 -0.986560 -1.685993
v 0.366298 -0.842069 -1.166286
v 0.881700 -0.782219 0.088397
v 0.366298 -0.842069 1.343081
v -0.877992 -0.986560 1.862787
v -2.122282 -1.131051 1.343081
v -2.637684 -1.190901 0.088397
v -2.122282 -1.131051 -1.166286
v 3.826688 -0.767423 0.088397
v 2.479571 -1.103150 3.417800
v -0.895439 -0.856319 4.796884
v -4.144769 -1.691787 3.417800
v -5.530420 -1.695673 0.088397
v -3.399714 -1.514675 -2.903424
v -1.091476 1.238102 -0.499580
v -0.588322 1.199914 -0.704374
v -1.091476 1.238102 0.676375
v -1.331010 1.255311 0.088397
v 0.002524 1.147740 0.676375
v -0.586937 1.187990 0.919923
v -0.000315 1.172186 -0.488309
v 0.242058 1.130531 0.088397
v -0.872159 -1.047036 -2.273627
v 0.785969 -0.869852 -1.581806
v 0.782805 -0.842609 1.758600
v -3.217848 -1.291240 0.088397
v -0.884457 -0.941138 2.450421
v -2.530993 -1.218155 1.758600
v 1.471392 -0.784433 0.088397
v -2.530065 -1.226144 -1.581806
v 0.207900 2.755625 0.477289
v 0.505664 2.837132 0.088397
v 0.207900 2.755625 -0.300495
v 0.096869 2.709549 -0.186591
v 0.096869 2.709549 0.363385
v 0.395692 2.810616 0.363385
v 0.395692 2.810616 -0.186591
v -0.013102 2.683034 0.088397
v -0.190772 3.926247 0.088397
v -0.208292 3.884908 0.160514
v -0.146533 3.920451 0.088397
v -0.208292 3.884908 0.016280
v -0.803659 -0.218744 -1.271448
v -0.210068 3.909752 0.037403
v -0.210068 3.909752 0.139391
v -0.164244 3.909948 0.139391
v -0.164244 3.909948 0.037403
v -4.565438 -1.816819 -2.195690
v -3.257705 -1.600949 -3.610926
v 0.279642 -0.217373 -0.893948
v -0.567779 1.023007 -0.936295
v -1.528767 1.128271 0.088397
v -0.792433 -0.207392 -1.386313
v -0.572199 1.084067 0.944476
v 0.430408 1.043408 0.088397
v 0.212190 -0.182004 -0.860254
v -1.286445 1.110597 -0.507696
v -1.282318 1.110725 0.696003
v 0.033626 1.044000 0.695171
v 0.041429 1.020588 -0.688195
v -1.895114 -0.233466 -0.859108
v -1.214849 2.006637 0.496948
v -0.337631 1.928167 0.533061
v -1.016163 -0.619495 -1.501470
v 0.081696 -0.449362 1.206065
v -0.335186 1.909935 -0.454520
v -0.835362 -0.559476 1.672966
v -2.119119 -0.699465 -0.979373
v -1.409583 2.020333 0.018800
v -0.836221 1.954144 0.730920
v -0.142163 1.902754 0.018296
v 0.619571 -0.446037 -0.099907
v 0.510828 -0.441981 -0.562583
v -0.835504 1.945044 -0.652234
v -1.211975 2.005982 -0.467233
v -0.063837 2.552883 0.088397
v 0.477481 2.464387 -0.246987
v 0.477081 2.467623 0.430089
v 0.068413 2.543495 0.419025
v 0.068417 2.543521 -0.242222
v 0.225236 2.497222 -0.383539
v 0.614693 2.455673 0.088397
v 0.225027 2.499075 0.566465
v -0.432947 3.708292 0.088397
v 0.564477 -0.442888 0.101129
v -0.318790 3.746405 0.231376
v -0.207635 3.784219 0.088397
v -0.318790 3.746405 -0.054582
v -0.390876 3.721004 -0.020538
v -0.390876 3.721004 0.197332
v -0.249550 3.772108 0.196261
v 0.397747 -0.293172 0.309846
v -0.249550 3.772108 -0.019467
v 0.171113 1.291477 -0.460876
v -0.604692 1.313610 -0.701332
v 0.406603 1.283731 0.087013
v 0.167812 1.320118 0.727454
v -1.795485 -0.234585 -0.800326
v -0.606698 1.330617 0.967884
v -1.032433 1.407907 0.667379
v -1.268902 1.424948 0.086950
v -1.015313 1.410032 -0.545007
v 2.907605 -0.935745 -2.166180
v -0.493714 0.197855 -0.975894
v 0.539118 0.162886 0.020300
v -0.902718 -0.791838 3.173093
v -0.911155 -0.720973 3.500191
v -3.273627 -1.201118 2.494380
v -3.046599 -1.193647 2.267848
v -3.943406 -1.285920 0.088397
v -4.269093 -1.289144 0.088397
v 2.505040 -0.577831 0.088397
v 2.176714 -0.642314 0.088397
v 1.277776 -0.707986 2.267534
v 0.278924 -0.784741 -1.112156
v 1.498586 -0.680205 2.490647
v 1.282769 -0.756480 -2.090103
v 1.510251 -0.682166 -2.325232
v -3.027088 -1.179613 -2.141078
v -3.198582 -1.196440 -2.395575
v -0.885563 -0.941363 -3.333608
v -0.880810 -0.980460 -2.992696
v -3.417076 -1.234138 -1.944479
v -2.788898 -1.174277 -2.526736
v 0.151896 -0.508985 -1.013096
v 0.417452 -0.836129 -1.041760
v -2.036813 -0.671815 1.183281
v -2.517782 -0.735215 0.088397
v -2.519448 -0.735059 -0.166128
v 0.089484 -0.190638 1.055745
v -0.692168 -0.231545 1.454792
v 0.233316 -0.011359 -0.731934
v -1.203612 0.578582 0.894846
v -0.471462 0.542990 1.190867
v -1.507504 0.316865 0.083290
v -1.269485 0.241315 -0.580114
v 0.398618 -0.320437 0.330249
v 0.171396 0.368195 0.933952
v 0.362585 -0.118785 -0.338659
v -1.581125 -0.164713 1.085174
v 1.984115 -0.607041 1.325250
v -1.912384 -0.157856 0.112157
v -0.454665 0.110051 1.301881
v -1.857687 -0.113500 0.088397
v -1.280505 0.091758 1.000801
v 0.618430 -0.745077 0.503325
v 0.776721 -0.722279 0.073551
v -0.930857 -0.928057 -1.630455
v -2.114083 -1.047412 -1.130194
v -0.829493 -0.920205 1.784948
v 0.280960 -0.774163 1.291139
v 0.396838 -0.466645 -0.765879
v 0.339233 -0.777174 -0.968505
v -1.990155 -0.160011 -0.272313
v -1.433662 0.293393 -0.122552
v -1.429191 0.607063 -0.110511
v -1.521158 0.837915 0.086569
v -1.279498 0.765727 -0.536999
v 0.091500 0.760109 0.795478
v 0.501737 0.676500 0.059791
v -1.249153 0.887206 0.779784
v -0.529882 0.856772 1.047979
v 0.108513 0.659817 -0.703487
v -0.532501 0.646811 -0.955189
v -2.511019 -1.176192 -0.219955
v -4.054402 -1.285287 -0.421096
v -2.500809 -1.113252 -0.217212
v -5.245627 -1.731426 -0.585700
v -3.747329 -1.289676 -0.381321
v -3.059351 -1.287044 -0.293480
v 3.192368 -0.746483 -1.429393
v 0.480983 -0.759387 -0.630869
v 1.736281 -0.698562 -0.984918
v 1.095509 -0.831277 -0.827536
v 2.030144 -0.642964 -1.068096
v 0.571351 -0.818258 -0.667110
v 0.905349 -0.854975 -1.290907
v 1.538414 -0.723832 -1.467110
v 1.818723 -0.671961 -1.582960
v 0.402904 -0.330177 -0.715275
v 2.271636 -0.642840 -0.489184
v 0.592555 -0.441839 -0.303324
v 0.606418 -0.304321 -0.113778
v 1.242737 -0.812929 -0.468778
v 3.540476 -0.817429 -0.613031
v 0.581268 -0.746804 -0.392000
v 1.950406 -0.704178 -0.472297
v 0.674511 -0.806279 -0.415981
v 1.180243 -0.809031 0.794594
v 1.727273 -0.651449 1.171283
v 0.700716 -0.803236 0.528982
v 3.172890 -0.965815 1.714151
v 0.149646 0.438608 -0.712862
v -1.275355 0.560087 -0.554472
v -0.513321 0.442273 -0.965462
v 0.343260 0.424740 -0.307188
v -0.232906 -0.487137 1.366238
v -0.167009 -0.833078 1.490347
v 0.045405 -0.886187 2.064581
v -0.314632 0.073135 1.232177
v 0.365719 -0.703684 2.965463
v 0.801333 -0.984927 4.103771
v -0.291584 -0.210581 1.250287
v 0.267564 -0.746834 2.687075
v 0.243332 0.227755 1.031578
v -0.139802 -0.900839 1.554465
v 0.615888 0.007188 0.175207
v -0.313677 0.346535 1.277928
v -0.870515 -1.029460 -1.053987
v -0.034962 -0.933592 -0.709493
v 0.396996 -0.883540 0.280667
v -0.640539 -1.004224 1.332025
v -1.675718 -1.123344 1.151484
v -2.147265 -1.174385 0.139001
v -1.868242 -1.143236 -0.702207
v -0.863837 -1.151535 -4.595027
v 2.435343 -0.990990 -3.224399
v 3.792554 -0.817855 0.085802
v 2.443048 -1.150969 3.393408
v -0.896252 -0.915117 4.776978
v -4.117756 -1.735710 3.399378
v -5.501250 -1.740108 0.090542
v -3.370335 -1.553199 -2.864222
v -0.870124 -1.124834 -2.277998
v 0.790771 -0.947381 -1.583913
v -3.223189 -1.369694 0.088681
v -0.871846 -1.094609 2.470095
v -2.532077 -1.295912 1.769503
v 1.487116 -0.938817 0.089742
v -2.532527 -1.304355 -1.585938
v -4.528634 -1.855933 -2.169739
v -3.229013 -1.709129 -3.578949
v -0.893178 2.124878 0.253229
v -0.481288 2.106811 0.260867
v -0.482008 2.095942 -0.198651
v -0.706447 2.105246 0.358960
v -0.388596 2.098374 0.022620
v -0.709101 2.100053 -0.298217
v -0.895113 2.124630 -0.209550
v 2.878486 -0.985556 -2.147537
v -0.496540 0.182527 -0.828243
v 0.347378 0.139213 0.069009
v -0.907561 -0.809086 3.490613
v -3.250935 -1.276374 2.483502
v -4.246566 -1.364845 0.089682
v 2.485034 -0.657736 0.087215
v 0.769789 -0.914528 1.723463
v 1.499896 -0.793387 -2.313473
v -3.143622 -1.518558 -2.368180
v -3.500342 -1.356151 -1.608148
v -0.867198 -1.133712 -3.316608
v -2.361609 -1.236877 -0.651169
v -2.737710 -1.323766 -1.088439
v 0.142072 -0.018247 -0.631996
v -1.182189 0.222072 -0.469732
v -0.183503 0.196340 0.883644
v 1.972309 -0.767884 1.313685
v -0.982655 0.178800 0.744017
v -1.240569 0.189864 0.018443
v -4.034519 -1.350827 -0.407887
v -5.215171 -1.773704 -0.563876
v 3.166179 -0.797111 -1.415336
v 1.297203 -0.842126 -1.194788
v 1.652211 -0.793517 -0.412468
v 1.809198 -0.789927 -1.571069
v 2.258282 -0.728713 -0.483786
v 1.479143 -0.876522 0.970385
v 3.509801 -0.867944 -0.602671
v 3.134511 -1.014027 1.694025
v 0.132000 -0.948699 2.400564
v 0.348993 -0.783349 2.954977
v 0.772656 -1.033903 4.079568
v -3.060676 -1.354320 -0.305356
v -2.566015 -1.262134 -0.214215
v 1.868197 -0.871187 -2.672120
v 2.207109 -0.862726 -1.785589
v -2.928819 -1.405218 -2.866741
v -0.866505 -1.135958 -3.743993
v 2.403282 -0.775623 -1.218686
v 0.156429 -0.084400 1.040069
v 0.329534 -1.015267 1.257821
v 0.081252 -0.920308 0.945160
v 1.297035 -0.989031 2.249665
v -0.433050 2.102420 0.136879
v 0.083143 0.167647 0.474477
v -3.138948 -1.193459 -1.868674
v -2.738867 -1.152869 -2.255440
v 0.210931 -0.533907 -1.121512
v -1.017321 -0.635807 -1.586148
v 0.737719 -0.489887 -0.005287
v 0.180584 -0.489524 1.333290
v -0.853439 -0.607901 1.780955
v -2.142297 -0.724296 1.300463
v -2.631958 -0.780020 0.013252
v -2.166356 -0.728116 -1.053912
v 0.675428 -0.479004 0.337928
v 0.561928 -0.497077 -0.607313
v -2.617827 -0.778498 -0.211054
v 0.454220 -0.507742 -0.843269
v 0.645181 -0.493130 -0.324363
v -0.184073 -0.531431 1.491433
v 0.198572 -0.748632 -1.194939
v -0.942155 -0.894955 -1.664163
v 0.786075 -0.699317 0.067384
v 0.286506 -0.738909 1.313423
v -0.831133 -0.876592 1.836247
v -2.107418 -1.002826 1.370980
v -2.694971 -1.081153 0.072682
v -2.142464 -1.019104 -1.148567
v 0.658190 -0.704445 0.495634
v -2.634714 -1.071295 -0.227012
v 0.524924 -0.708938 -0.635102
v 0.403210 -0.713495 -0.956613
v 0.618239 -0.705545 -0.383048
v -0.158378 -0.793624 1.521264
v -0.688097 -0.290086 1.543701
v -1.691784 -0.228253 1.157166
v -2.124952 -0.190201 0.089412
v 0.177463 -0.249941 1.062863
v 0.517304 -0.317064 0.153558
v 0.177946 -0.056605 1.035618
v -2.640308 -1.129392 0.086226
v -1.919865 -0.108625 -0.062784
v -1.303506 0.135024 1.021429
v -0.448225 0.154869 1.351790
v -2.076708 -1.032753 1.350440
v 0.455575 -0.428994 0.130915
v -2.086600 -0.225694 -0.300350
v -1.935407 -0.158789 0.029082
v -0.265930 -0.270410 1.309365
v -0.300060 0.104950 1.275546
v -0.866425 -1.110372 -4.599442
v 2.441334 -0.915590 -3.227199
v 0.519216 -0.191528 -0.285238
v -0.523973 0.153035 -1.056108
v 0.667097 0.074309 0.081485
v 0.255304 0.337605 1.018615
v -0.477150 0.489825 1.317337
v -1.262662 0.547558 1.001345
v -1.650412 0.270350 0.067222
v -1.409504 0.188283 -0.653590
v 0.225807 -0.052668 -0.801828
v -1.581435 0.246842 -0.143723
v 0.459782 -0.320841 -0.517728
v 0.594616 -0.290992 0.095360
vn 0.3899 0.0798 0.9174
vn 0.4078 0.0034 0.9131
vn 0.4051 0.0867 0.9101
vn 0.4004 0.1138 0.9092
vn -0.3648 0.9280 -0.0752
vn -0.3818 0.9239 0.0230
vn -0.3839 0.9202 0.0766
vn -0.3676 0.9278 -0.0634
vn 0.0303 0.9986 -0.0434
vn 0.0277 0.9992 -0.0284
vn 0.0460 0.9897 -0.1356
vn -0.4056 0.4239 -0.8098
vn -0.7880 0.6017 0.1303
vn -0.7943 0.5664 -0.2198
vn -0.7947 0.5806 -0.1771
vn -0.7903 0.6042 0.1016
vn 0.1077 -0.7201 0.6854
vn -0.1039 -0.7140 0.6924
vn -0.0768 -0.7256 0.6838
vn 0.1242 -0.6807 0.7219
vn -0.9178 0.1288 0.3757
vn -0.7324 0.6707 -0.1172
vn -0.6895 0.6930 -0.2106
vn -0.6869 0.7225 -0.0777
vn -0.7006 0.7126 0.0371
vn -0.3503 0.5306 0.7719
vn -0.0171 0.9997 0.0191
vn -0.0917 0.9958 -0.0034
vn -0.0779 0.9965 0.0291
vn -0.0531 0.9975 0.0457
vn 0.8709 -0.2469 0.4250
vn 0.6787 -0.2272 0.6984
vn 0.8641 -0.1741 0.4723
vn 0.8945 -0.1488 0.4215
vn -0.6797 0.7235 0.1205
vn -0.6371 0.7434 0.2037
vn 0.8668 -0.1329 0.4807
vn 0.9064 -0.0728 0.4160
vn 0.7411 -0.4398 0.5073
vn 0.4770 -0.7828 0.3996
vn 0.6763 -0.5821 0.4514
vn -0.3282 0.9295 -0.1683
vn -0.4024 0.9075 -0.1207
vn -0.3459 0.9250 -0.1572
vn 0.3821 0.5123 0.7692
vn 0.3719 0.5386 0.7560
vn 0.4322 0.2831 0.8562
vn 0.4243 0.3396 0.8394
vn -0.2396 0.7893 -0.5653
vn -0.2749 0.8293 -0.4864
vn -0.2044 0.9280 -0.3115
vn -0.1521 0.9014 -0.4054
vn 0.3620 0.2747 -0.8908
vn -0.1031 0.9941 -0.0341
vn -0.1398 0.9880 -0.0664
vn 0.4382 0.2298 0.8690
vn 0.8742 0.1914 0.4462
vn 0.9033 0.1605 0.3979
vn 0.8794 0.1862 0.4381
vn 0.5203 0.8155 -0.2536
vn 0.2510 0.9298 -0.2692
vn 0.3107 0.9095 -0.2763
vn 0.7351 0.5996 -0.3162
vn -0.8871 0.1466 0.4378
vn -0.8886 0.2065 0.4095
vn -0.8479 -0.0781 0.5244
vn 0.9914 0.0515 -0.1206
vn 0.9984 -0.0490 -0.0282
vn 0.9856 -0.0461 0.1626
vn 0.9966 0.0794 -0.0223
vn 0.7732 0.5923 -0.2267
vn 0.9366 0.1742 -0.3041
vn -0.2444 0.9565 -0.1593
vn 0.0564 0.8249 0.5625
vn 0.2945 0.7286 0.6184
vn -0.0556 0.7661 0.6403
vn -0.1881 0.9788 -0.0815
vn -0.2207 0.9753 0.0002
vn -0.4227 0.8967 0.1310
vn 0.3453 0.9385 -0.0024
vn 0.5823 0.7971 -0.1598
vn 0.4399 0.8958 -0.0629
vn 0.3218 0.6755 0.6634
vn 0.6029 0.0632 -0.7953
vn 0.5284 0.0801 -0.8452
vn 0.3947 0.1067 -0.9126
vn -0.3304 0.6063 -0.7234
vn -0.1886 0.9813 -0.0393
vn -0.1715 0.9831 -0.0632
vn 0.6018 0.7961 -0.0641
vn 0.3613 -0.6488 -0.6697
vn 0.9369 -0.0737 -0.3417
vn 0.9483 -0.0128 -0.3173
vn 0.8892 -0.3349 -0.3118
vn 0.8629 -0.3917 -0.3192
vn -0.0889 0.9727 -0.2146
vn -0.2530 0.9503 -0.1814
vn -0.2725 0.9467 -0.1718
vn -0.0897 0.9726 -0.2146
vn -0.8835 0.2959 0.3632
vn 0.9532 0.1919 0.2335
vn 0.9261 0.2260 0.3022
vn 0.8990 0.2530 0.3574
vn 0.2105 0.9741 0.0823
vn 0.2573 0.9649 0.0524
vn -0.0256 0.9961 -0.0843
vn 0.0105 0.9985 -0.0541
vn -0.0930 0.9956 -0.0125
vn -0.1150 0.9934 0.0051
vn -0.1780 0.9840 -0.0102
vn -0.0650 0.9977 -0.0176
vn -0.0439 0.9985 0.0316
vn -0.0843 0.9964 -0.0031
vn -0.1027 0.9905 -0.0909
vn -0.1245 0.9907 -0.0555
vn -0.1565 0.9877 0.0057
vn -0.0885 0.9937 -0.0683
vn 0.0016 1.0000 -0.0064
vn -0.0096 0.9993 0.0362
vn -0.1159 0.9932 -0.0130
vn -0.1209 0.9923 -0.0268
vn -0.1056 0.9890 -0.1035
vn -0.1014 0.9946 0.0227
vn -0.4590 0.6479 -0.6080
vn 0.7125 0.6620 0.2324
vn -0.9265 0.0305 -0.3750
vn -0.9263 0.0346 -0.3751
vn -0.8997 -0.2519 -0.3565
vn -0.5211 0.0066 0.8534
vn -0.5400 0.0967 0.8361
vn -0.5283 0.0383 0.8482
vn 0.6515 -0.7034 0.2844
vn -0.9232 0.0694 0.3781
vn -0.9191 0.1118 0.3777
vn -0.9138 -0.1739 0.3672
vn 0.2994 0.4696 0.8306
vn 0.3719 0.3363 0.8652
vn 0.3804 0.2485 0.8908
vn 0.3860 0.1474 0.9106
vn -0.6804 0.7239 -0.1140
vn -0.6849 0.7287 -0.0000
vn -0.4590 0.6478 0.6080
vn 0.3804 0.2485 -0.8908
vn 0.3719 0.3363 -0.8652
vn 0.3861 0.1474 -0.9106
vn -0.1768 0.9810 0.0800
vn -0.1150 0.9893 0.0898
vn -0.2114 0.9773 -0.0152
vn -0.1884 0.9791 -0.0770
vn -0.3396 0.9265 -0.1617
vn -0.3297 0.9439 -0.0177
vn -0.1011 0.9827 -0.1550
vn -0.1322 0.9886 -0.0722
vn -0.0075 0.9998 -0.0164
vn -0.1902 0.9807 -0.0454
vn -0.1851 0.9818 -0.0417
vn -0.1150 0.9853 -0.1262
vn -0.0652 0.9926 -0.1023
vn -0.1102 0.9786 -0.1740
vn -0.3904 0.8997 -0.1954
vn -0.2556 0.9612 -0.1033
vn -0.2793 0.9445 -0.1730
vn -0.3679 0.8882 -0.2753
vn -0.2259 0.9728 0.0514
vn -0.3134 0.9392 0.1404
vn -0.1933 0.9806 0.0330
vn 0.0947 0.9872 -0.1286
vn -0.0141 0.9989 -0.0449
vn -0.0344 0.9980 -0.0524
vn 0.1358 0.9818 -0.1328
vn 0.0725 0.9916 0.1075
vn 0.0150 0.9995 0.0283
vn 0.1151 0.9741 0.1948
vn 0.1883 0.9609 0.2032
vn 0.5780 0.7739 -0.2589
vn 0.3725 0.8033 -0.4648
vn 0.4438 0.8012 -0.4013
vn 0.3825 0.2690 0.8839
vn 0.3844 0.3326 0.8612
vn 0.3846 0.3493 0.8544
vn 0.2392 0.7891 -0.5658
vn -0.2026 0.7562 0.6221
vn -0.2866 0.5649 0.7738
vn -0.5248 0.8173 -0.2377
vn -0.4086 0.2321 0.8827
vn -0.3152 0.3564 0.8796
vn -0.3152 0.3562 0.8796
vn -0.4109 0.2269 0.8830
vn 0.6079 0.7298 0.3129
vn 0.7544 0.5060 0.4181
vn 0.7802 0.4465 0.4381
vn -0.2770 0.6878 -0.6710
vn 0.3903 0.7527 -0.5301
vn -0.9296 -0.0032 -0.3686
vn -0.9349 -0.0230 -0.3543
vn -0.9312 -0.0120 -0.3643
vn -0.9287 -0.0146 0.3705
vn -0.9307 -0.0163 0.3654
vn -0.9309 -0.0165 0.3648
vn -0.3235 0.3159 0.8919
vn -0.3192 0.3172 0.8930
vn -0.3317 0.3134 0.8898
vn -0.1188 0.9926 -0.0270
vn 0.5066 0.8259 0.2475
vn 0.4944 0.8358 0.2389
vn 0.4950 0.8353 0.2393
vn 0.1660 0.7765 -0.6078
vn 0.7895 -0.5479 0.2767
vn 0.7832 -0.5301 0.3249
vn 0.7874 -0.5414 0.2949
vn 0.2104 0.6947 0.6879
vn 0.2027 0.7099 0.6745
vn 0.2020 0.7114 0.6732
vn -0.7749 0.2755 -0.5688
vn -0.8879 0.3025 -0.3466
vn -0.9245 -0.0037 -0.3811
vn -0.8004 0.0410 -0.5981
vn 0.8912 0.2643 -0.3686
vn 0.8329 0.4148 -0.3662
vn 0.8312 0.4184 -0.3661
vn 0.4183 0.3408 0.8419
vn 0.4609 0.2935 0.8375
vn 0.4112 0.3484 0.8423
vn -0.6804 0.7239 0.1140
vn 0.8716 -0.4098 0.2688
vn 0.8716 -0.4098 -0.2688
vn -0.2142 -0.7086 -0.6723
vn 0.4918 0.8352 -0.2460
vn 0.4815 0.8424 -0.2421
vn 0.4803 0.8432 -0.2416
vn 0.7473 0.5628 -0.3533
vn -0.5902 -0.1353 -0.7958
vn -0.6421 0.0557 -0.7646
vn -0.8576 -0.3515 -0.3755
vn 0.7473 0.5628 0.3533
vn 0.8333 0.4160 0.3640
vn 0.8313 0.4202 0.3638
vn -0.5902 -0.1353 0.7958
vn -0.8026 0.0435 0.5949
vn -0.6472 0.0610 0.7599
vn -0.8576 -0.3515 0.3755
vn -0.9245 -0.0037 0.3811
vn 0.1297 0.9897 0.0602
vn 0.0274 0.9336 0.3574
vn 0.1014 0.9839 0.1470
vn -0.0038 0.8983 0.4394
vn -0.0037 0.8680 -0.4966
vn -0.3909 0.4088 -0.8247
vn 0.8743 -0.3092 -0.3741
vn 0.8612 -0.4230 -0.2818
vn 0.8619 -0.4195 -0.2847
vn -0.1109 -0.9867 -0.1189
vn -0.0454 -0.9971 -0.0609
vn 0.0279 -0.9948 -0.0978
vn -0.1007 -0.9813 -0.1643
vn 0.7335 0.6103 -0.2990
vn -0.3687 0.9295 0.0068
vn -0.3682 0.9297 -0.0040
vn -0.3704 0.9121 0.1758
vn -0.6684 0.2468 -0.7017
vn -0.8732 0.3229 0.3652
vn 0.2920 -0.4070 0.8655
vn 0.6158 -0.7311 -0.2938
vn -0.7788 0.2801 0.5613
vn -0.6764 0.2549 0.6910
vn 0.8919 0.2680 0.3644
vn -0.8798 0.3062 -0.3637
vn -0.3921 -0.0520 -0.9184
vn -0.4053 -0.0468 -0.9130
vn -0.3845 -0.0550 -0.9215
vn -0.3744 -0.0589 -0.9254
vn 0.4428 0.0590 -0.8947
vn 0.4272 -0.0317 -0.9036
vn 0.4207 0.3314 -0.8445
vn 0.4135 0.3400 -0.8446
vn -0.8879 0.3025 0.3466
vn 0.3135 -0.0849 -0.9458
vn 0.3243 0.1009 -0.9406
vn 0.3240 0.0897 -0.9418
vn -0.5238 0.8183 0.2367
vn -0.3554 0.9191 -0.1702
vn 0.3487 -0.3934 0.8507
vn 0.3612 -0.0157 -0.9324
vn 0.3530 0.0567 -0.9339
vn 0.5872 -0.7683 -0.2550
vn -0.2861 0.7528 0.5928
vn -0.2232 0.7574 -0.6136
vn 0.5560 -0.7924 0.2508
vn -0.1247 0.9884 -0.0868
vn -0.1567 0.9873 -0.0269
vn -0.1028 0.9942 0.0332
vn 0.0296 0.9995 -0.0125
vn -0.0328 0.9992 -0.0233
vn -0.1769 0.9839 0.0252
vn -0.0955 0.9832 0.1558
vn -0.4613 0.0359 -0.8865
vn -0.4708 0.0338 -0.8816
vn -0.4678 0.0344 -0.8832
vn 0.4025 0.4060 0.8205
vn 0.3976 0.4060 0.8229
vn 0.4152 0.4060 0.8141
vn -0.7857 0.5244 -0.3283
vn 0.7808 -0.3497 0.5178
vn 0.8239 -0.3341 0.4578
vn -0.2654 0.9566 0.1205
vn -0.4213 0.8925 0.1614
vn -0.5953 0.7769 0.2051
vn -0.6061 0.7643 0.2202
vn 0.0609 0.9713 -0.2301
vn 0.0714 0.9698 -0.2334
vn -0.8493 -0.2368 -0.4719
vn -0.8655 -0.1717 -0.4705
vn -0.7283 -0.1842 -0.6600
vn -0.8010 -0.2449 -0.5463
vn 0.9125 0.2687 0.3084
vn 0.8910 0.3667 0.2677
vn 0.9182 0.2286 0.3236
vn -0.0715 0.9443 0.3214
vn 0.1331 0.9484 0.2879
vn 0.1108 0.9499 0.2921
vn 0.8164 0.1320 -0.5622
vn 0.8152 0.4311 -0.3868
vn -0.2689 0.9422 -0.1997
vn -0.2678 0.9426 -0.1995
vn 0.3474 0.0913 -0.9333
vn 0.3534 0.0926 -0.9309
vn 0.3523 0.0924 -0.9313
vn -0.3551 0.1741 0.9185
vn 0.4200 0.9012 0.1070
vn 0.4046 0.9053 0.1291
vn 0.3971 0.1199 0.9099
vn 0.3919 0.1492 0.9078
vn 0.3916 0.1511 0.9077
vn -0.0882 0.9961 -0.0058
vn -0.1786 0.9829 0.0451
vn -0.3641 0.0735 0.9285
vn 0.3861 0.1800 0.9047
vn 0.5689 0.2524 -0.7827
vn 0.8740 0.0206 -0.4856
vn 0.8385 -0.2303 -0.4938
vn 0.5652 0.2011 -0.8001
vn -0.2596 -0.6329 0.7294
vn -0.6315 0.7090 -0.3140
vn -0.2953 0.9317 0.2116
vn -0.0950 0.9387 0.3315
vn -0.0590 0.9388 0.3393
vn -0.2979 0.9315 0.2088
vn -0.9344 -0.0114 -0.3559
vn -0.9352 0.0085 -0.3541
vn -0.9255 -0.0032 -0.3788
vn -0.9325 -0.0179 0.3606
vn 0.8792 0.1483 -0.4527
vn 0.8794 0.1645 -0.4468
vn 0.8728 0.1931 -0.4483
vn -0.4853 0.0309 -0.8738
vn -0.4890 0.0303 -0.8718
vn -0.4970 0.0289 -0.8673
vn 0.3632 0.0939 -0.9270
vn 0.3640 0.0939 -0.9267
vn 0.3689 0.0941 -0.9247
vn -0.9066 0.2107 -0.3655
vn -0.9145 0.1328 -0.3822
vn -0.9141 0.1386 -0.3811
vn -0.7572 0.5731 0.3133
vn 0.0962 0.9909 -0.0946
vn -0.0432 0.9987 -0.0264
vn 0.1246 0.9887 -0.0834
vn 0.4611 0.8558 -0.2343
vn 0.4610 0.8559 -0.2343
vn 0.4435 0.8669 -0.2278
vn 0.4463 0.8652 -0.2288
vn 0.0088 0.9985 -0.0532
vn 0.0067 0.9986 -0.0523
vn -0.0833 0.9965 -0.0102
vn 0.0457 0.9419 0.3329
vn 0.1040 0.9725 0.2084
vn 0.1168 0.9744 0.1918
vn 0.0439 0.9432 0.3294
vn 0.3168 0.3266 -0.8905
vn 0.4376 0.8704 -0.2257
vn 0.8571 0.3572 -0.3711
vn 0.6618 0.7412 -0.1130
vn 0.1615 0.9868 0.0070
vn 0.9771 -0.0500 -0.2067
vn 0.4828 0.8448 0.2307
vn 0.2142 0.9633 0.1617
vn 0.2158 0.9629 0.1621
vn -0.1550 0.8338 0.5299
vn 0.9060 0.1251 -0.4043
vn 0.8961 0.1091 -0.4302
vn -0.9410 -0.0061 -0.3384
vn 0.7955 0.2956 -0.5290
vn 0.9270 0.1143 -0.3573
vn 0.7797 0.2747 -0.5627
vn 0.8454 0.4919 0.2079
vn 0.4349 0.0591 0.8985
vn 0.4402 0.0674 0.8954
vn 0.4527 0.0874 0.8874
vn 0.6896 -0.2121 0.6924
vn 0.1944 0.7258 0.6599
vn 0.1532 -0.6036 0.7824
vn 0.5567 0.5243 -0.6444
vn 0.8627 0.2828 0.4193
vn 0.4118 0.1526 0.8984
vn 0.4163 0.0474 0.9080
vn -0.9423 0.0178 -0.3343
vn 0.1864 -0.3935 -0.9002
vn 0.1241 -0.3335 -0.9346
vn 0.1165 -0.3260 -0.9382
vn 0.1069 -0.9877 0.1145
vn 0.0920 -0.9858 0.1408
vn -0.0347 -0.9988 0.0355
vn 0.1034 -0.9946 0.0021
vn -0.3468 -0.0437 0.9369
vn -0.3576 -0.1311 0.9246
vn -0.3632 -0.1892 0.9123
vn 0.4071 -0.2577 0.8763
vn 0.4370 -0.1904 0.8791
vn 0.4090 -0.2535 0.8766
vn 0.8682 -0.1585 -0.4702
vn 0.8390 -0.3766 -0.3927
vn 0.8406 -0.3702 -0.3954
vn 0.8445 -0.5006 0.1905
vn 0.9290 -0.3477 0.1265
vn 0.9253 -0.3562 0.1301
vn 0.1176 -0.9931 -0.0006
vn 0.1451 -0.9893 -0.0180
vn -0.0622 -0.9961 -0.0623
vn 0.0276 -0.9981 0.0556
vn 0.1064 -0.9912 0.0789
vn 0.1360 -0.9898 0.0418
vn 0.1646 -0.9850 0.0525
vn 0.1267 -0.9882 0.0855
vn 0.2152 -0.9752 -0.0512
vn 0.0315 -0.9981 0.0533
vn 0.0240 -0.9989 0.0410
vn 0.1124 -0.9935 0.0192
vn 0.1179 -0.9891 0.0880
vn -0.0518 -0.9945 0.0910
vn 0.1956 -0.9806 0.0100
vn 0.3121 -0.9499 0.0144
vn 0.3132 -0.9365 0.1574
vn 0.1636 -0.9840 0.0702
vn 0.0112 -0.9998 -0.0159
vn 0.1638 -0.9862 0.0218
vn 0.0907 -0.9949 0.0452
vn 0.0439 -0.9987 -0.0263
vn 0.0949 -0.9954 0.0088
vn 0.1658 -0.9784 0.1237
vn 0.1094 -0.9929 0.0458
vn 0.3010 -0.9376 0.1742
vn 0.2030 -0.9786 -0.0325
vn 0.2990 -0.9458 -0.1268
vn 0.0855 -0.9946 0.0589
vn 0.0670 -0.9978 0.0027
vn -0.0854 -0.9896 0.1156
vn 0.2636 -0.9540 0.1430
vn 0.1353 -0.9824 0.1289
vn 0.2177 -0.9749 0.0462
vn 0.3810 -0.3115 0.8705
vn -0.9263 -0.1405 0.3497
vn -0.8811 -0.3267 0.3420
vn -0.9338 -0.0776 0.3494
vn -0.3700 -0.2878 0.8833
vn 0.9841 -0.1695 0.0527
vn -0.8253 -0.3118 -0.4707
vn -0.8282 -0.3028 -0.4716
vn 0.0415 -0.9990 0.0166
vn 0.2232 -0.9725 -0.0666
vn 0.2940 -0.9448 0.1445
vn 0.1947 -0.9750 0.1066
vn 0.0975 -0.9860 -0.1355
vn -0.9358 0.0852 0.3422
vn 0.1551 -0.9867 -0.0492
vn 0.1805 -0.9836 -0.0024
vn -0.0974 -0.9920 0.0806
vn -0.1238 -0.9922 -0.0122
vn 0.0439 -0.2536 -0.9663
vn -0.1227 -0.9874 -0.1000
vn -0.1232 0.9739 -0.1904
vn -0.7095 -0.6512 -0.2693
vn -0.6701 -0.6995 -0.2483
vn -0.7116 -0.6484 -0.2704
vn -0.2066 -0.7263 -0.6556
vn -0.7708 -0.5495 0.3222
vn 0.7828 -0.5278 -0.3296
vn 0.7958 -0.5330 -0.2874
vn 0.7827 -0.5278 -0.3298
vn 0.2956 -0.5107 0.8073
vn 0.3170 -0.4323 0.8442
vn 0.2986 -0.5005 0.8126
vn 0.3857 -0.0682 -0.9201
vn -0.9047 -0.4116 -0.1101
vn -0.2720 -0.3965 0.8768
vn -0.7490 -0.5954 -0.2908
vn 0.8034 -0.5234 -0.2840
vn 0.8045 -0.5234 -0.2809
vn 0.7572 -0.6103 0.2327
vn 0.7344 -0.6370 0.2343
vn 0.7336 -0.6379 0.2343
vn 0.2759 -0.5732 0.7716
vn 0.7843 -0.5333 -0.3169
vn 0.1811 -0.9829 0.0321
vn 0.1853 -0.9821 0.0325
vn -0.0866 -0.9873 0.1331
vn -0.0509 -0.9941 0.0955
vn -0.0458 -0.9942 0.0973
vn -0.0600 -0.9945 0.0861
vn 0.0438 -0.9939 -0.1009
vn -0.0623 -0.9891 -0.1336
vn -0.9165 0.0577 -0.3958
vn 0.8601 -0.3178 0.3991
vn 0.4172 0.0317 0.9082
vn -0.1840 0.9763 -0.1138
vn -0.0609 0.9970 0.0481
vn -0.6098 -0.1870 -0.7702
vn -0.7243 -0.2403 -0.6462
vn -0.8309 -0.2939 -0.4725
vn -0.0480 -0.9988 -0.0122
vn -0.0484 -0.9988 -0.0096
vn -0.0430 -0.9983 -0.0403
vn -0.0709 -0.9953 0.0656
vn -0.0571 -0.9981 0.0232
vn -0.0594 -0.9978 0.0303
vn -0.2672 0.9378 -0.2215
vn -0.0740 0.9969 0.0271
vn -0.4144 0.2038 -0.8870
vn 0.7923 -0.5583 0.2461
vn 0.3882 -0.6260 0.6763
vn 0.3780 -0.6671 0.6419
vn 0.3883 -0.6259 0.6764
vn -0.6231 -0.7099 0.3284
vn -0.9468 0.1017 -0.3055
vn -0.8810 0.0779 -0.4667
vn -0.9469 0.1018 -0.3051
vn -0.3849 -0.9018 -0.1965
vn -0.3533 -0.9074 -0.2277
vn -0.3755 -0.9037 -0.2059
vn -0.1691 -0.7258 0.6668
vn 0.9464 0.0374 -0.3207
vn 0.8909 -0.3241 -0.3183
vn 0.7817 -0.5513 -0.2915
vn 0.7495 -0.6015 -0.2764
vn -0.9830 0.1222 -0.1369
vn -0.4074 -0.8966 -0.1736
vn 0.7185 -0.6435 -0.2640
vn 0.7935 -0.4225 -0.4380
vn 0.8090 -0.2463 -0.5336
vn 0.3977 -0.5811 0.7101
vn 0.4959 0.8683 -0.0110
vn -0.3434 0.4202 0.8400
vn -0.8997 0.2298 0.3711
vn 0.4164 -0.0381 0.9084
vn -0.3177 -0.2868 -0.9038
vn 0.7103 -0.6633 0.2356
vn 0.4290 -0.2056 0.8796
vn 0.8521 0.2661 -0.4506
vt 0.150743 0.731653
vt 0.157082 0.741340
vt 0.133429 0.740234
vt 0.117712 0.730511
vt 0.187977 0.679217
vt 0.175827 0.675252
vt 0.174531 0.667078
vt 0.187963 0.672499
vt 0.288103 0.881115
vt 0.281978 0.883625
vt 0.244355 0.836154
vt 0.245294 0.832930
vt 0.447280 0.911698
vt 0.489873 0.914236
vt 0.482664 0.981380
vt 0.445293 0.978400
vt 0.394169 0.826434
vt 0.398264 0.808314
vt 0.443149 0.803023
vt 0.443036 0.815650
vt 0.154872 0.732592
vt 0.159872 0.741675
vt 0.244355 0.768850
vt 0.244355 0.691184
vt 0.272996 0.692301
vt 0.271881 0.773324
vt 0.371830 0.836048
vt 0.364132 0.826469
vt 0.389838 0.808384
vt 0.390085 0.821162
vt 0.275139 0.773188
vt 0.284211 0.771513
vt 0.283952 0.832893
vt 0.278026 0.830440
vt 0.891741 0.281285
vt 0.855346 0.271997
vt 0.856223 0.193080
vt 0.892407 0.189930
vt 0.177603 0.772445
vt 0.204121 0.812035
vt 0.173790 0.816225
vt 0.150686 0.775575
vt 0.844825 0.925801
vt 0.847262 0.904759
vt 0.852416 0.908282
vt 0.849640 0.921061
vt 0.167561 0.821094
vt 0.140098 0.776365
vt 0.180071 0.771248
vt 0.200897 0.801937
vt 0.368266 0.894943
vt 0.362286 0.890884
vt 0.364205 0.840341
vt 0.196492 0.772025
vt 0.194102 0.742827
vt 0.215749 0.743475
vt 0.215229 0.763801
vt 0.293439 0.802080
vt 0.345306 0.803421
vt 0.338995 0.810678
vt 0.292838 0.807184
vt 0.520851 0.861419
vt 0.556706 0.887415
vt 0.555351 0.900247
vt 0.508190 0.895939
vt 0.270689 0.942316
vt 0.275383 0.946599
vt 0.191844 0.715035
vt 0.216746 0.704549
vt 0.686707 0.804603
vt 0.685500 0.844099
vt 0.643816 0.865646
vt 0.647249 0.815354
vt 0.582216 0.931985
vt 0.567570 0.934158
vt 0.569349 0.928742
vt 0.582293 0.925639
vt 0.861004 0.835536
vt 0.850194 0.899223
vt 0.856604 0.836410
vt 0.605476 0.908963
vt 0.615561 0.905393
vt 0.617365 0.919530
vt 0.608682 0.922555
vt 0.597593 0.923927
vt 0.592763 0.898885
vt 0.244355 0.958527
vt 0.247459 0.964545
vt 0.187798 0.742836
vt 0.185823 0.716902
vt 0.676414 0.995145
vt 0.662241 0.978240
vt 0.671188 0.969898
vt 0.673003 0.974458
vt 0.617270 0.927186
vt 0.598700 0.929683
vt 0.189678 0.767506
vt 0.555966 0.904784
vt 0.550982 0.932435
vt 0.497003 0.934183
vt 0.502493 0.896167
vt 0.714009 0.896659
vt 0.714009 0.951209
vt 0.681856 0.956413
vt 0.676415 0.895918
vt 0.824248 0.263523
vt 0.824887 0.205550
vt 0.559819 0.882826
vt 0.584805 0.890605
vt 0.494904 0.963130
vt 0.546644 0.957824
vt 0.553515 0.961386
vt 0.497415 0.966089
vt 0.598242 0.950320
vt 0.583050 0.952132
vt 0.292838 0.624685
vt 0.241733 0.673190
vt 0.239011 0.668707
vt 0.288564 0.622544
vt 0.900461 0.830768
vt 0.884494 0.890302
vt 0.632852 0.921870
vt 0.643817 0.941643
vt 0.625418 0.947079
vt 0.225125 0.496018
vt 0.244345 0.500282
vt 0.247584 0.507403
vt 0.235935 0.505904
vt 0.695087 0.152066
vt 0.689667 0.157496
vt 0.671124 0.134819
vt 0.683798 0.122144
vt 0.824040 0.282412
vt 0.854910 0.295262
vt 0.639628 0.283636
vt 0.661354 0.305596
vt 0.640547 0.328441
vt 0.609626 0.297036
vt 0.769428 0.337120
vt 0.782296 0.368149
vt 0.640475 0.206774
vt 0.640178 0.233764
vt 0.610435 0.238095
vt 0.611027 0.194917
vt 0.771473 0.151559
vt 0.785288 0.121330
vt 0.805299 0.507577
vt 0.801005 0.509335
vt 0.805752 0.493133
vt 0.806733 0.495515
vt 0.586217 0.752360
vt 0.558801 0.687238
vt 0.579332 0.677182
vt 0.611805 0.739444
vt 0.802332 0.725928
vt 0.766726 0.723310
vt 0.761735 0.663609
vt 0.789237 0.665932
vt 0.756639 0.929737
vt 0.770118 0.865243
vt 0.791778 0.854272
vt 0.782705 0.915487
vt 0.661996 0.768196
vt 0.653501 0.755233
vt 0.681619 0.750815
vt 0.688857 0.765475
vt 0.817754 0.908562
vt 0.820652 0.848600
vt 0.728026 0.741362
vt 0.703961 0.685088
vt 0.734903 0.677264
vt 0.697459 0.507496
vt 0.693006 0.505707
vt 0.687295 0.493133
vt 0.690090 0.495112
vt 0.449768 0.856824
vt 0.443149 0.857900
vt 0.447685 0.840729
vt 0.450157 0.842734
vt 0.981498 0.717397
vt 0.977497 0.716468
vt 0.975481 0.704363
vt 0.976090 0.701759
vt 0.525620 0.507234
vt 0.522399 0.509236
vt 0.526809 0.496548
vt 0.528664 0.494454
vt 0.668089 0.084173
vt 0.800380 0.083033
vt 0.907442 0.316421
vt 0.907895 0.285337
vt 0.979364 0.305864
vt 0.978046 0.346534
vt 0.613099 0.354993
vt 0.571133 0.312191
vt 0.891096 0.309821
vt 0.571836 0.245002
vt 0.573124 0.179063
vt 0.679537 0.368043
vt 0.796372 0.404956
vt 0.661714 0.404577
vt 0.982512 0.208730
vt 0.908744 0.192030
vt 0.907090 0.163540
vt 0.934264 0.144642
vt 0.802857 0.421494
vt 0.835097 0.493133
vt 0.640932 0.111309
vt 0.638228 0.003046
vt 0.660534 0.066402
vt 0.628514 0.098987
vt 0.591834 0.049514
vt 0.554646 0.319118
vt 0.601239 0.367113
vt 0.559504 0.421267
vt 0.492928 0.352849
vt 0.584263 0.765071
vt 0.590572 0.775655
vt 0.541267 0.781218
vt 0.547988 0.764139
vt 0.725682 0.755327
vt 0.725403 0.765687
vt 0.687582 0.775994
vt 0.512536 0.776307
vt 0.521056 0.756725
vt 0.167830 0.679217
vt 0.146108 0.696665
vt 0.188464 0.821282
vt 0.201722 0.821094
vt 0.214405 0.854743
vt 0.201006 0.854473
vt 0.746221 0.743743
vt 0.756561 0.753937
vt 0.652048 0.778900
vt 0.797854 0.741933
vt 0.827169 0.750724
vt 0.837701 0.767562
vt 0.790367 0.752147
vt 0.525036 0.856659
vt 0.756639 0.749292
vt 0.792839 0.785715
vt 0.757894 0.777634
vt 0.004594 0.846983
vt -0.000000 0.809903
vt 0.028377 0.809903
vt 0.026762 0.851975
vt 0.037854 0.885814
vt 0.057367 0.858831
vt 0.069112 0.894411
vt 0.693042 0.337627
vt 0.108249 0.884368
vt 0.116061 0.887548
vt 0.114205 0.924846
vt 0.107452 0.921183
vt 0.553956 0.968474
vt 0.496888 0.972894
vt 0.103972 0.923452
vt 0.104949 0.884119
vt 0.109995 0.814341
vt 0.116061 0.809903
vt 0.116061 0.855966
vt 0.108953 0.856118
vt 0.832531 0.628486
vt 0.813916 0.626969
vt 0.815659 0.614867
vt 0.831039 0.612789
vt 0.573973 0.642523
vt 0.553212 0.643512
vt 0.548844 0.608744
vt 0.565288 0.604678
vt 0.674875 0.610867
vt 0.675890 0.636301
vt 0.659345 0.641928
vt 0.662327 0.607393
vt 0.988116 0.716899
vt 0.977755 0.700017
vt 0.536554 0.505013
vt 0.532012 0.505461
vt 0.531557 0.493133
vt 0.533833 0.493404
vt 0.912530 0.864033
vt 0.910161 0.934351
vt 0.906753 0.933478
vt 0.909392 0.864477
vt 0.625832 0.949104
vt 0.630274 0.955941
vt 0.599594 0.960979
vt 0.597438 0.953927
vt 0.840055 0.609243
vt 0.794982 0.510390
vt 0.688200 0.504697
vt 0.649907 0.605278
vt 0.979558 0.823686
vt 0.970283 0.822168
vt 0.996257 0.821835
vt 0.444504 0.841425
vt 0.448138 0.838514
vt 0.450678 0.840314
vt 0.445024 0.839005
vt 0.443149 0.841562
vt 0.451144 0.843413
vt 0.900461 0.937847
vt 0.901397 0.865530
vt 0.952510 0.646353
vt 0.951085 0.712847
vt 0.946793 0.713466
vt 0.945322 0.646958
vt 0.001034 0.349142
vt 0.084680 0.313356
vt 0.117316 0.369946
vt 0.073781 0.423706
vt 0.552100 0.754462
vt 0.529621 0.689125
vt 0.147177 0.831253
vt 0.162864 0.913863
vt 0.134234 0.907836
vt 0.127402 0.827211
vt 0.844825 0.634370
vt 0.785147 0.931238
vt 0.820652 0.924228
vt 0.980688 0.839626
vt 0.970283 0.847826
vt 0.643817 0.643680
vt 0.764565 0.739132
vt 0.812519 0.675576
vt 0.826024 0.739482
vt 0.759501 0.943680
vt 0.539117 0.638777
vt 0.538938 0.612956
vt 1.000000 0.833453
vt 0.519049 0.745605
vt 0.201497 0.889586
vt 0.188464 0.888193
vt 0.164611 0.821636
vt 0.188464 0.899568
vt 0.505828 0.681856
vt 0.117712 0.890816
vt 0.117712 0.821094
vt 0.714009 0.865646
vt 0.744983 0.872053
vt 0.744983 0.917103
vt 0.724377 0.912391
vt 0.807429 0.064803
vt 0.554767 0.247386
vt 0.653595 0.421079
vt 0.555511 0.171702
vt 0.581152 0.146872
vt 0.597978 0.154939
vt 0.626657 0.490313
vt 0.796518 0.836757
vt 0.794313 0.805731
vt 0.842863 0.824618
vt 0.844825 0.848600
vt 0.725478 0.788615
vt 0.725581 0.820269
vt 0.490772 0.884125
vt 0.445293 0.862960
vt 0.214222 0.809506
vt 0.203624 0.801525
vt 0.643816 0.915626
vt 0.652222 0.914642
vt 0.672907 0.906047
vt 0.675192 0.968741
vt 0.283056 0.532494
vt 0.292838 0.551090
vt 0.286256 0.551325
vt 0.278327 0.532993
vt 0.100742 0.684049
vt 0.117712 0.783320
vt 0.079522 0.792955
vt 0.073196 0.684926
vt 0.207403 0.935995
vt 0.196013 0.889586
vt 0.214242 0.889586
vt 0.210729 0.935809
vt 0.338170 0.928691
vt 0.333883 0.922517
vt 0.569999 0.915217
vt 0.356384 0.831137
vt 0.521329 0.832899
vt 0.551730 0.838521
vt 0.247329 0.829569
vt 0.273758 0.832930
vt 0.298650 0.928691
vt 0.300187 0.922566
vt 0.079421 0.878142
vt 0.079395 0.855245
vt 0.105307 0.855821
vt 0.650934 0.155009
vt 0.619912 0.132312
vt 0.881816 0.794528
vt 0.848787 0.795819
vt 0.079300 0.813234
vt 0.105872 0.813012
vt 0.547428 0.936641
vt 0.563604 0.954434
vt 0.844825 0.798949
vt 0.713951 0.868458
vt 0.677690 0.865646
vt 0.117712 0.622509
vt 0.118192 0.545254
vt 0.124788 0.545700
vt 0.126508 0.618665
vt 0.770211 0.800611
vt 0.771431 0.831060
vt 0.760145 0.828494
vt 0.756639 0.776330
vt 0.079300 0.809903
vt 0.596588 0.811953
vt 0.547753 0.816741
vt 0.841045 0.804523
vt 0.518232 0.812967
vt 0.900691 0.811978
vt 0.906688 0.812318
vt 0.401937 0.891722
vt 0.441419 0.883548
vt 0.557806 0.080220
vt 0.606025 0.121387
vt 0.523669 0.116828
vt 0.582869 0.956401
vt 0.584319 0.963488
vt 0.561530 0.967230
vt 0.562277 0.959898
vt 0.673360 0.173832
vt 0.662429 0.184782
vt 0.635303 0.170640
vt 0.147130 0.516141
vt 0.162920 0.500285
vt 0.168210 0.507188
vt 0.153314 0.520400
vt 0.492928 0.936604
vt 0.581374 0.912964
vt 0.492928 0.147260
vt 0.611220 0.871394
vt 0.113201 0.945031
vt 0.106021 0.939921
vt 0.493366 0.247967
vt 0.672440 0.865646
vt 0.676414 0.869252
vt 0.577624 0.837973
vt 0.603386 0.862017
vt 0.198476 0.924123
vt 0.188464 0.890005
vt 0.202301 0.817465
vt 0.081818 0.928227
vt 0.035354 0.803125
vt 0.000000 0.809903
vt 0.016451 0.683986
vt 0.045399 0.685810
vt 0.121225 0.192964
vt 0.101943 0.247848
vt 0.067103 0.246865
vt 0.066719 0.167983
vt 0.353573 0.796379
vt 0.356714 0.708753
vt 0.388122 0.686204
vt 0.394169 0.802080
vt 0.394496 0.682101
vt 0.442054 0.498926
vt 0.454396 0.496018
vt 0.440114 0.676496
vt 0.926884 0.493133
vt 0.936737 0.498062
vt 0.944505 0.680031
vt 0.900880 0.675175
vt 0.844825 0.794528
vt 0.877117 0.673353
vt 0.881599 0.792345
vt 0.295719 0.371752
vt 0.193027 0.371561
vt 0.206461 0.309137
vt 0.267962 0.308238
vt 0.304856 0.271492
vt 0.369452 0.298901
vt 0.309037 0.210607
vt 0.370814 0.195083
vt 0.263612 0.389950
vt 0.317296 0.425626
vt 0.271736 0.425564
vt 0.423709 0.322213
vt 0.446038 0.331776
vt 0.328532 0.453341
vt 0.321098 0.066454
vt 0.351024 -0.000000
vt 0.379202 0.029871
vt 0.342369 0.088827
vt 0.169441 0.424477
vt 0.146763 0.351438
vt 0.123163 0.296892
vt 0.157792 0.283921
vt 0.315783 0.138453
vt 0.393453 0.144053
vt 0.349435 0.173083
vt 0.448682 0.102347
vt 0.173699 0.066072
vt 0.147937 -0.000000
vt 0.195447 0.120322
vt 0.298850 0.121028
vt 0.274762 0.451639
vt 0.492928 0.202849
vt 0.490548 0.350902
vt 0.447072 0.202621
vt 0.454396 0.803023
vt 0.394169 0.795637
vt 0.318355 0.690231
vt 0.368846 0.496258
vt 0.382442 0.497340
vt 0.394169 0.496018
vt 0.902905 0.493441
vt 0.026755 0.496018
vt 0.020383 0.496717
vt 0.204710 0.425199
vt 0.214658 0.391382
vt 0.457597 0.179206
vt 0.426495 0.180195
vt 0.000000 0.140044
vt 0.292838 0.787854
vt 0.207855 0.179536
vt 0.271393 0.177025
vt 0.184569 0.494719
vt 0.142085 0.494389
vt 0.000000 0.498079
vt 0.013468 0.497476
vt 0.000833 0.244680
vt 0.837577 -0.000000
vt 0.987005 0.531731
vt 0.974574 0.623917
vt 0.970283 0.624520
vt 0.982488 0.532237
vt 0.992209 0.700017
vt 0.988030 0.699785
vt 0.458949 0.660601
vt 0.490772 0.862960
vt 0.486056 0.862407
vt 0.454396 0.661116
vt 0.963973 0.807712
vt 0.969457 0.850593
vt 0.965035 0.849999
vt 0.959580 0.807872
vt 0.228897 0.788667
vt 0.216746 0.679217
vt 0.222230 0.680666
vt 0.233333 0.788552
vt 0.970283 0.493133
vt 0.966297 0.493760
vt 0.448057 0.803544
vt 0.448093 0.838342
vt 0.443149 0.838514
vt 0.490772 0.496018
vt 0.485154 0.497497
vt 0.992209 0.493133
vt 0.987543 0.494366
vt 0.970283 0.756372
vt 0.965841 0.756837
vt 0.969938 0.918926
vt 0.965674 0.917307
vt 0.240053 0.896774
vt 0.244355 0.896223
vt 0.945322 0.794528
vt 0.299591 0.162680
vt 0.317783 0.183282
vt 0.279867 0.495634
vt 0.234036 0.494430
vt 0.240263 0.449360
vt 0.345834 0.496018
vt 0.175010 0.230549
vt 0.178890 0.277543
vt 0.900461 0.794528
vt 0.906486 0.794528
vt 0.889090 0.148152
vt 0.880196 0.161121
vt 0.029074 0.900171
vt 0.002581 0.907206
vt 0.005382 0.900105
vt 0.018376 0.894411
vt 0.005330 0.926278
vt 0.000000 0.913750
vt 0.029074 0.926456
vt 0.018378 0.931770
vt 0.945222 0.106281
vt 0.892577 0.173234
vt 0.941046 0.859411
vt 0.936244 0.928242
vt 0.643772 0.944985
vt 0.278304 0.694536
vt 0.940752 0.807335
vt 0.912472 0.807153
vt 0.827643 0.865482
vt 0.824076 0.924992
vt 0.822287 0.924915
vt 0.820652 0.868575
vt 0.244365 0.680503
vt 0.272708 0.679217
vt 0.823600 0.848600
vt 0.820652 0.849542
vt 0.643817 0.831627
vt 0.636840 0.828572
vt 0.418563 0.939803
vt 0.443149 0.942237
vt 0.284326 0.694716
vt 0.846550 0.900044
vt 0.288875 0.679217
vt 0.292838 0.680039
vt 0.292838 0.821101
vt 0.288479 0.819883
vt 0.221110 0.970770
vt 0.216746 0.971514
vt 0.216746 0.815956
s 1
usemtl hatcolor
f 325/1/1 331/2/2 208/3/3 338/4/4
f 298/5/5 294/6/6 128/7/7 129/8/8
f 53/9/9 43/10/10 56/11/11 50/12/11
f 68/13/12 61/14/12 53/15/12 64/16/12
f 318/17/13 328/18/14 129/19/15 128/20/16
f 331/2/17 325/1/18 143/21/19 200/22/20
f 293/23/21 294/24/21 308/25/21 307/26/21
f 340/27/22 343/28/23 154/29/24 323/30/25
f 326/31/26 6/32/26 5/33/26 150/34/26
f 169/35/27 170/36/28 30/37/29 286/38/30
f 321/39/31 320/40/32 207/41/33 205/42/34
f 328/43/35 329/44/36 323/45/25 154/46/24
f 336/47/37 337/48/38 205/42/34 207/41/33
f 320/40/39 321/39/40 280/49/40 92/50/41
f 340/27/42 339/51/43 133/52/43 135/53/44
f 319/54/45 330/55/46 197/56/47 65/57/48
f 335/58/49 341/59/50 136/60/51 104/61/52
f 335/62/53 342/63/53 56/64/53 43/65/53
f 98/66/54 43/10/10 53/9/9 61/67/55
f 330/55/46 316/68/56 67/69/56 197/56/47
f 159/70/57 138/71/58 105/72/58 160/73/59
f 297/74/60 299/75/61 152/76/62 73/77/63
f 324/78/64 323/45/65 144/79/66 145/80/66
f 183/81/67 345/82/68 85/83/69 72/84/70
f 72/84/70 182/85/71 334/86/72 183/81/67
f 154/87/73 98/66/54 61/67/55 328/88/73
f 316/68/74 330/55/46 203/89/75 131/90/76
f 328/91/77 318/92/78 142/93/79 329/94/77
f 290/95/80 300/96/81 182/85/71 72/84/82
f 330/55/46 319/54/45 130/97/83 203/89/75
f 50/98/84 125/99/85 64/100/86 53/101/86
f 341/102/50 335/103/49 43/104/87 98/105/87
f 170/36/28 165/106/88 8/107/89 30/37/29
f 334/86/90 342/63/90 132/108/90 139/109/90
f 300/96/81 297/74/60 73/77/63 182/85/71
f 303/110/91 302/111/91 115/112/91 148/113/91
f 297/74/92 300/96/93 314/114/94 312/115/95
f 289/116/96 295/117/97 68/118/98 64/119/99
f 339/120/100 340/121/100 323/45/65 324/78/64
f 290/95/101 296/122/102 310/123/103 304/124/101
f 296/125/104 290/126/80 72/127/82 85/128/105
f 2/129/106 126/130/107 177/131/108 24/132/109
f 7/133/110 165/106/88 170/36/28 26/134/111
f 4/135/112 206/136/113 199/137/114 25/138/115
f 6/139/116 7/133/110 26/134/111 28/140/117
f 3/141/118 191/142/119 189/143/120 29/144/121
f 1/145/122 2/129/106 24/132/109 23/146/123
f 8/107/89 1/145/122 23/146/123 30/37/29
f 88/147/124 89/148/124 44/149/124 42/150/124
f 96/151/125 71/152/125 63/153/125 97/154/125
f 102/155/126 101/156/127 69/157/128 75/158/128
f 99/159/129 70/160/130 62/161/130 100/162/131
f 22/163/132 96/164/132 97/165/132 19/166/132
f 101/167/133 100/162/134 62/161/135 69/168/135
f 99/169/136 97/165/136 63/170/136 70/171/136
f 86/172/137 91/173/138 46/174/139 40/175/139
f 89/176/140 84/177/141 39/178/141 44/179/140
f 90/180/142 86/181/142 40/182/142 45/183/142
f 93/184/143 88/185/144 42/186/145 47/187/145
f 23/146/123 24/132/109 117/188/146 122/189/147
f 111/190/148 166/191/149 168/192/150 13/193/151
f 25/138/115 199/137/114 204/194/152 114/195/153
f 26/134/111 170/36/28 169/35/27 110/196/154
f 29/144/121 189/143/120 190/197/155 113/198/156
f 27/199/157 28/140/117 109/200/158 106/201/159
f 48/202/160 123/203/161 120/204/162 14/205/163
f 108/206/164 111/190/148 13/193/151 12/207/165
f 28/140/117 26/134/111 110/196/154 109/200/158
f 24/132/109 177/131/108 178/208/166 117/188/146
f 333/209/167 118/210/168 179/211/169 103/212/170
f 116/213/171 201/214/172 202/215/173 10/216/174
f 22/217/175 55/218/175 60/219/176 21/220/177
f 20/221/178 54/222/179 59/223/180 19/166/178
f 21/220/177 60/219/176 51/224/181 16/225/181
f 140/226/182 131/90/76 143/21/183 145/227/183
f 15/228/184 57/229/184 52/230/184 18/231/184
f 17/232/185 58/233/186 54/222/187 20/221/188
f 19/166/189 59/223/190 55/234/191 22/163/189
f 15/235/192 16/236/192 51/237/192 57/238/192
f 342/63/193 335/62/193 104/239/193 132/108/193
f 52/240/194 57/238/194 158/241/195 157/242/196
f 58/243/197 52/244/197 157/245/198 161/246/199
f 162/247/200 161/246/201 133/248/202 134/249/202
f 5/250/203 6/139/116 28/140/117 27/199/157
f 151/251/204 4/252/204 191/253/205 146/254/206
f 2/255/207 1/256/207 148/113/207 115/112/207
f 310/257/208 305/258/209 151/251/209 146/254/210
f 150/259/211 5/260/211 206/261/212 198/262/213
f 80/263/214 76/264/215 38/265/216 34/266/217
f 82/267/218 77/268/218 37/269/219 32/270/220
f 31/271/221 83/272/222 78/273/222 36/274/223
f 84/275/141 90/180/224 45/183/224 39/276/141
f 91/277/225 87/278/225 41/279/225 46/280/225
f 87/278/226 93/184/226 47/187/226 41/279/226
f 309/281/227 303/282/227 148/283/227 149/284/227
f 147/285/228 3/286/228 188/287/229 186/288/230
f 93/184/231 87/278/231 32/270/220 37/269/219
f 91/173/138 86/172/137 31/271/221 36/274/223
f 89/148/232 88/147/232 33/289/233 34/266/217
f 84/290/234 89/148/234 34/266/217 38/265/216
f 87/291/235 91/173/235 36/274/236 32/292/237
f 86/181/238 90/180/238 35/293/239 31/294/240
f 35/293/239 90/180/241 84/275/241 38/295/242
f 39/178/243 45/296/244 41/297/245 47/298/243
f 46/299/246 41/297/245 45/296/244 40/300/246
f 42/301/247 44/179/247 39/178/247 47/298/247
f 1/302/248 8/303/248 149/284/248 148/283/248
f 333/304/249 103/305/250 240/306/251 217/307/249
f 219/308/252 283/309/253 257/310/254 269/311/255
f 96/151/256 94/312/256 66/313/256 71/152/256
f 76/314/257 69/315/258 62/316/259 79/317/259
f 81/318/260 80/263/214 34/266/217 33/289/233
f 17/319/261 100/162/134 101/167/133 18/320/261
f 19/166/262 97/165/262 99/169/262 20/221/262
f 21/220/263 94/312/263 96/151/263 22/217/263
f 79/321/264 83/322/265 31/294/240 35/293/239
f 78/273/266 82/323/266 32/292/237 36/274/236
f 18/324/267 101/156/127 102/155/126 15/235/267
f 102/155/268 75/158/269 74/325/269 95/326/270
f 15/235/271 102/155/268 95/326/270 16/236/271
f 20/327/188 99/159/129 100/162/131 17/319/185
f 77/268/272 81/328/273 33/329/274 37/269/275
f 76/330/276 79/321/264 35/293/239 38/295/242
f 16/225/277 95/331/278 94/312/279 21/220/277
f 18/231/280 52/230/280 58/332/280 17/333/280
f 80/334/281 75/335/281 69/315/258 76/314/257
f 88/185/144 93/184/143 37/269/275 33/329/274
f 83/272/282 70/171/282 63/170/282 78/273/282
f 66/313/283 74/336/284 81/328/273 77/268/272
f 82/267/285 71/152/285 66/313/285 77/268/285
f 62/316/286 70/337/286 83/338/286 79/317/286
f 74/325/287 75/158/287 80/263/287 81/318/287
f 63/339/288 71/340/288 82/341/288 78/342/288
f 95/331/278 74/336/284 66/313/283 94/312/279
f 118/210/168 121/343/289 122/189/147 117/188/146
f 116/213/171 141/344/290 190/197/155 114/195/153
f 111/190/148 108/206/164 109/200/158 110/196/154
f 107/345/291 201/214/172 204/194/152 106/201/159
f 112/346/292 181/347/293 187/348/294 113/198/156
f 108/206/164 107/345/291 106/201/159 109/200/158
f 107/345/291 108/206/164 12/207/165 11/349/295
f 136/350/296 194/351/297 195/352/298 104/353/296
f 159/70/299 162/354/300 134/355/301 138/71/301
f 328/356/14 61/14/302 68/13/302 129/357/15
f 327/358/303 320/40/39 92/50/41 137/359/304
f 318/92/78 317/360/305 140/361/306 142/93/79
f 145/362/307 144/363/308 142/93/79 140/361/306
f 168/192/150 166/191/149 123/203/161 48/202/160
f 299/364/61 288/365/309 125/366/310 152/367/62
f 242/368/311 211/369/312 282/370/313 285/371/314
f 327/372/315 319/373/316 65/374/317 85/375/317
f 339/51/318 338/376/319 134/377/320 133/52/318
f 152/76/321 125/99/85 50/98/84 180/378/322
f 341/59/50 343/28/323 155/379/324 136/60/51
f 104/239/325 195/380/326 193/381/327 132/108/325
f 292/382/328 293/23/328 307/26/328 306/383/328
f 338/376/319 337/384/329 138/385/330 134/377/320
f 291/386/331 301/387/332 315/388/333 305/258/331
f 178/208/166 177/131/108 174/389/334 173/390/335
f 338/391/336 339/120/336 324/78/336 325/392/336
f 301/387/332 292/393/337 306/394/337 315/388/333
f 288/395/338 299/75/339 313/396/340 302/111/341
f 325/392/18 324/78/342 145/80/342 143/397/19
f 343/398/23 341/102/343 98/105/343 154/399/24
f 293/400/344 292/401/345 67/402/346 127/403/347
f 157/242/196 156/404/348 155/405/349 135/406/350
f 59/223/180 54/222/179 162/354/300 159/70/299
f 54/222/187 58/233/186 161/407/201 162/354/200
f 59/223/190 159/70/57 160/73/59 55/234/191
f 161/246/199 157/245/198 135/408/351 133/248/351
f 160/409/352 163/410/353 60/219/354 55/218/354
f 164/411/355 158/241/356 57/238/357 51/237/357
f 163/410/358 164/412/359 51/224/360 60/219/360
f 8/303/361 165/413/362 167/414/363 149/284/361
f 169/35/27 166/191/149 111/190/148 110/196/154
f 299/75/339 297/74/92 312/115/95 313/396/340
f 317/415/364 318/17/13 128/20/16 127/416/364
f 171/417/365 175/418/366 181/347/293 185/419/367
f 172/420/368 176/421/369 126/422/370 153/423/371
f 173/390/335 175/418/366 179/211/169 178/208/166
f 174/389/334 176/424/372 188/425/373 184/426/374
f 301/427/375 291/428/376 65/429/377 197/430/378
f 173/390/335 174/389/334 184/426/374 187/348/294
f 177/131/108 126/130/107 176/424/372 174/389/334
f 103/212/170 179/211/169 175/418/366 171/417/365
f 295/117/97 298/5/5 129/8/8 68/118/98
f 303/110/379 289/431/379 288/395/338 302/111/341
f 153/423/371 126/422/370 2/255/380 115/112/380
f 178/208/166 179/211/169 118/210/168 117/188/146
f 344/432/381 180/378/322 50/98/382 56/64/382
f 185/419/367 181/347/293 112/346/292 9/433/383
f 184/426/374 188/425/373 3/141/118 29/144/121
f 186/288/230 188/287/229 176/421/369 172/420/368
f 187/348/294 181/347/293 175/418/366 173/390/335
f 187/348/294 184/426/374 29/144/121 113/198/156
f 334/86/72 182/85/71 73/77/63 344/432/381
f 291/428/376 296/125/104 85/128/105 65/429/377
f 183/81/67 334/86/72 336/434/384 345/82/68
f 146/254/206 191/253/205 3/435/385 147/436/385
f 190/197/155 141/344/290 112/346/292 113/198/156
f 189/143/120 191/142/119 4/135/112 25/138/115
f 190/197/155 189/143/120 25/138/115 114/195/153
f 192/437/386 9/433/383 112/346/292 141/344/387
f 140/361/182 317/360/388 316/438/74 131/439/76
f 193/381/389 163/410/353 160/409/352 196/440/390
f 193/381/327 195/380/326 164/412/359 163/410/358
f 158/241/195 194/351/391 156/404/348 157/242/196
f 139/109/392 132/108/393 193/381/389 196/440/390
f 195/352/298 194/351/297 158/241/356 164/411/355
f 196/440/390 160/409/352 105/441/394 139/109/392
f 319/373/316 327/372/315 137/442/395 130/443/395
f 202/215/173 201/214/172 107/345/291 11/349/295
f 294/6/6 293/400/344 127/403/347 128/7/7
f 203/89/396 200/22/397 143/21/398 131/90/398
f 320/40/32 345/444/399 336/47/37 207/41/33
f 198/262/213 206/261/212 4/252/400 151/251/400
f 321/39/401 331/2/17 200/22/20 280/49/401
f 336/434/402 334/86/402 139/109/392 105/441/394
f 296/445/102 291/386/403 305/258/403 310/257/103
f 199/137/114 206/136/113 5/250/203 27/199/157
f 204/194/152 199/137/114 27/199/157 106/201/159
f 204/194/152 201/214/172 116/213/171 114/195/153
f 337/48/404 338/4/4 208/3/3 205/42/405
f 156/404/348 194/351/391 136/350/406 155/405/349
f 212/446/407 213/447/407 258/448/408 256/449/409
f 227/450/410 270/451/411 271/452/412 243/453/413
f 210/454/414 254/455/415 241/456/416 209/457/414
f 241/458/417 238/459/418 239/460/418 255/461/419
f 233/462/420 236/463/420 258/464/421 259/465/422
f 215/466/423 255/467/424 259/465/425 214/468/423
f 225/469/426 229/470/427 211/471/428 210/472/429
f 209/473/430 224/474/431 225/469/426 210/472/429
f 215/475/432 230/476/433 224/474/431 209/473/430
f 263/477/434 225/469/426 248/478/435 265/479/436
f 251/480/437 278/481/438 275/482/439 248/478/435
f 245/483/440 222/484/441 261/485/442 260/486/443
f 229/470/427 246/487/444 257/310/254 267/488/445
f 267/488/445 247/489/446 281/490/447 229/470/427
f 273/491/448 260/486/443 250/492/449 253/493/450
f 250/492/449 260/486/443 261/485/442 231/494/451
f 244/495/452 221/496/453 222/484/441 245/483/440
f 228/497/454 244/495/452 245/483/440 226/498/455
f 248/478/435 275/482/439 276/499/456 265/479/436
f 232/500/457 216/501/458 278/481/438 277/502/459
f 255/461/419 215/503/460 209/504/460 241/458/417
f 242/505/461 237/506/462 235/507/462 254/455/463
f 235/507/464 238/508/464 241/456/416 254/455/415
f 255/467/424 239/509/465 233/462/465 259/465/425
f 237/510/466 242/368/311 285/371/314 284/511/467
f 245/483/440 260/486/443 273/491/448 226/498/455
f 244/495/452 228/497/454 227/450/410 243/453/413
f 263/477/434 265/479/436 266/512/468 264/513/469
f 231/494/451 223/514/470 249/515/471 250/492/449
f 253/493/450 250/492/449 249/515/471 230/476/433
f 243/453/413 220/516/472 221/496/453 244/495/452
f 211/517/473 242/505/461 254/455/463 210/454/473
f 213/518/474 228/497/454 226/498/455 214/519/475
f 246/487/444 229/470/427 264/513/469 266/512/468
f 268/520/476 218/521/477 246/487/444 266/512/468
f 269/311/255 257/310/254 246/487/444 218/521/477
f 270/451/411 247/489/446 283/309/253 271/452/412
f 258/448/408 236/522/478 234/523/478 256/449/409
f 272/524/479 220/516/472 243/453/413 271/452/412
f 333/209/167 332/525/480 121/343/289 118/210/168
f 168/526/481 48/527/482 231/528/482 261/529/483
f 48/527/484 14/530/484 223/531/484 231/528/484
f 12/532/485 13/533/485 222/534/485 221/535/485
f 185/536/486 9/537/487 218/538/487 268/539/488
f 202/540/489 11/541/490 220/542/490 272/543/491
f 332/544/492 333/304/492 217/307/492 216/545/492
f 14/546/493 49/547/493 232/548/493 223/19/493
f 11/549/494 12/532/494 221/535/494 220/550/494
f 343/28/323 340/27/42 135/53/44 155/379/324
f 13/551/495 168/526/481 261/529/483 222/552/495
f 103/305/250 171/553/496 262/554/497 240/306/251
f 171/553/496 185/536/486 268/539/488 262/554/497
f 9/537/498 192/555/499 269/556/500 218/538/498
f 10/557/501 202/540/489 272/543/491 219/558/501
f 259/465/422 258/464/421 213/559/502 214/468/502
f 214/519/475 274/560/503 252/561/504 215/475/432
f 215/475/432 252/561/504 253/493/450 230/476/433
f 253/493/450 252/561/504 274/560/503 273/491/448
f 273/491/448 274/560/503 214/519/475 226/498/455
f 263/477/434 264/513/469 229/470/427 225/469/426
f 240/562/505 262/563/506 279/564/507 276/499/456
f 276/499/456 275/482/439 217/565/508 240/562/505
f 275/482/439 278/481/438 216/501/458 217/565/508
f 276/499/456 279/564/507 266/512/468 265/479/436
f 277/502/459 249/515/471 223/514/470 232/500/457
f 266/512/468 279/564/507 262/563/506 268/520/476
f 230/476/433 249/515/471 251/480/437 224/474/431
f 248/478/435 225/469/426 224/474/431 251/480/437
f 249/515/471 277/502/459 278/481/438 251/480/437
f 228/497/454 213/518/474 212/566/509 227/450/410
f 212/566/509 282/567/510 281/490/447 227/450/410
f 281/490/447 247/489/446 270/451/411 227/450/410
f 167/414/363 165/413/362 7/568/511 322/569/511
f 130/97/512 137/359/304 92/50/41 280/49/512
f 130/97/513 280/49/513 200/22/397 203/89/396
f 121/343/289 124/570/514 287/571/515 122/189/147
f 281/490/447 282/567/510 211/471/428 229/470/427
f 271/452/412 283/309/253 219/308/252 272/524/479
f 257/310/254 283/309/253 247/489/446 267/488/445
f 285/371/314 282/370/313 212/446/516 256/449/517
f 284/511/467 285/371/314 256/449/517 234/523/518
f 233/572/519 284/573/520 234/574/521 236/575/521
f 235/576/522 237/577/523 239/578/524 238/579/522
f 237/577/523 284/573/520 233/572/519 239/578/524
f 120/204/162 124/570/514 49/580/525 14/205/163
f 30/37/29 287/571/515 119/581/526 286/38/30
f 120/204/162 119/581/526 287/571/515 124/570/514
f 119/581/526 120/204/162 123/203/161 286/38/30
f 286/38/30 123/203/161 166/191/149 169/35/27
f 287/571/515 30/37/29 23/146/123 122/189/147
f 288/365/309 289/116/96 64/119/99 125/366/310
f 295/582/527 289/583/527 303/282/527 309/281/527
f 304/124/528 310/123/208 146/584/210 147/285/528
f 315/388/529 306/394/530 150/259/530 198/262/531
f 307/26/532 308/25/532 322/585/532 326/31/532
f 298/586/533 295/582/534 309/281/534 311/587/535
f 311/588/536 309/589/537 149/590/537 167/591/538
f 306/383/539 307/26/539 326/31/539 150/34/539
f 300/96/93 290/95/540 304/124/541 314/114/94
f 314/114/94 304/124/541 147/285/542 186/288/543
f 294/24/544 298/592/533 311/593/535 308/25/544
f 308/594/545 311/588/536 167/591/538 322/595/545
f 313/396/340 312/115/95 172/420/546 153/423/547
f 302/111/341 313/396/340 153/423/547 115/112/548
f 312/115/95 314/114/94 186/288/543 172/420/546
f 305/258/549 315/388/529 198/262/531 151/251/549
f 337/596/329 336/434/550 105/441/550 138/597/330
f 316/598/551 317/415/551 127/416/551 67/599/551
f 326/31/552 322/585/552 7/600/552 6/32/552
f 323/45/25 329/44/36 142/601/79 144/79/308
f 331/2/2 321/39/553 205/42/405 208/3/3
f 332/602/554 216/603/554 232/604/554 49/605/554
f 141/344/387 116/213/171 10/216/174 192/437/386
f 292/401/345 301/427/375 197/430/378 67/402/346
f 49/580/525 124/570/514 121/343/289 332/525/480
f 269/606/500 192/607/499 10/557/555 219/558/555
f 345/444/399 320/40/32 327/358/556 85/608/556
f 56/64/557 342/63/557 334/86/72 344/432/381
f 180/378/322 344/432/381 73/77/63 152/76/321
